{"asset":{"generator":"Khronos glTF Spline I/O v0.0.1","version":"2.0"},"scenes":[{"nodes":[0]}],"nodes":[{"name":"","children":[1,2,3,4]},{"name":"Blob 1","matrix":[1,0,0,0,0,1,0,0,0,0,1,0,221,276,-229,1],"mesh":0},{"name":"Directional Light 2","translation":[-23,-80,0],"rotation":[-0.09865431575723958,-0.7001909210940048,0.7001909210940048,0.09865431575723958],"extensions":{"KHR_lights_punctual":{"light":0}}},{"name":"Directional Light","translation":[200,300,300],"rotation":[-0.4062840720729887,0.12301291902225084,-0.2623788760260691,0.8665785595944042],"extensions":{"KHR_lights_punctual":{"light":1}}},{"name":"Personal Camera","camera":0,"translation":[298.55243672987274,591.2642097434941,-1035.261905493962],"rotation":[-0.012861559441392546,0.9825508780078082,0.17000908011471358,0.07433212692617922]}],"cameras":[{"type":"orthographic","orthographic":{"xmag":1560,"ymag":1330,"zfar":100000,"znear":-100000}}],"meshes":[{"primitives":[{"attributes":{"POSITION":1,"NORMAL":2,"FACEMAP":3,"COLOR":4,"RANDOMCOLOR":5},"indices":0}]}],"buffers":[{"uri":"data:application/octet-stream;base64,","byteLength":952320}],"bufferViews":[{"buffer":0,"byteOffset":0,"byteLength":95232,"target":34963},{"buffer":0,"byteOffset":95232,"byteLength":190464,"target":34962},{"buffer":0,"byteOffset":285696,"byteLength":190464,"target":34962},{"buffer":0,"byteOffset":476160,"byteLength":31744,"target":34962},{"buffer":0,"byteOffset":507904,"byteLength":253952,"target":34962},{"buffer":0,"byteOffset":761856,"byteLength":190464,"target":34962}],"accessors":[{"bufferView":0,"byteOffset":0,"componentType":5125,"count":23808,"type":"SCALAR","min":[0],"max":[15871]},{"bufferView":1,"byteOffset":0,"componentType":5126,"count":15872,"type":"VEC3","min":[-227.06201171875,-233.29013061523438,-227.06202697753906],"max":[227.06202697753906,233.29013061523438,227.06202697753906]},{"bufferView":2,"byteOffset":0,"componentType":5126,"count":15872,"type":"VEC3","min":[-1,-1,-1],"max":[1,1,1]},{"bufferView":3,"byteOffset":0,"componentType":5125,"count":7936,"type":"SCALAR","min":[0],"max":[7935]},{"bufferView":4,"byteOffset":0,"componentType":5126,"count":15872,"type":"VEC4","min":[0,0,0,0],"max":[0,0,0,0]},{"bufferView":5,"byteOffset":0,"componentType":5126,"count":15872,"type":"VEC3","min":[0.39660897850990295,0.1380317509174347,0.5806894898414612],"max":[0.39660897850990295,0.1380317509174347,0.5806894898414612]}],"extensions":{"KHR_lights_punctual":{"lights":[{"type":"directional","name":"Directional Light 2","color":[1,1,1],"intensity":0.7},{"type":"directional","name":"Directional Light","color":[1,1,1],"intensity":0.7}]}},"extensionsUsed":["KHR_lights_punctual"]}