<svg viewBox="0 0 31 31" fill="none" xmlns="http://www.w3.org/2000/svg">
<path fill-rule="evenodd" clip-rule="evenodd" d="M15.25 0.25C6.96591 0.25 0.25 6.96591 0.25 15.25C0.25 23.5341 6.96591 30.25 15.25 30.25C23.5341 30.25 30.25 23.5341 30.25 15.25C30.25 6.96591 23.5341 0.25 15.25 0.25ZM16.6136 20.7045C16.6136 21.0662 16.47 21.4131 16.2142 21.6688C15.9585 21.9245 15.6117 22.0682 15.25 22.0682C14.8883 22.0682 14.5415 21.9245 14.2858 21.6688C14.03 21.4131 13.8864 21.0662 13.8864 20.7045V16.6136H9.79545C9.4338 16.6136 9.08695 16.47 8.83122 16.2142C8.57549 15.9585 8.43182 15.6117 8.43182 15.25C8.43182 14.8883 8.57549 14.5415 8.83122 14.2858C9.08695 14.03 9.4338 13.8864 9.79545 13.8864H13.8864V9.79545C13.8864 9.4338 14.03 9.08695 14.2858 8.83122C14.5415 8.57549 14.8883 8.43182 15.25 8.43182C15.6117 8.43182 15.9585 8.57549 16.2142 8.83122C16.47 9.08695 16.6136 9.4338 16.6136 9.79545V13.8864H20.7045C21.0662 13.8864 21.4131 14.03 21.6688 14.2858C21.9245 14.5415 22.0682 14.8883 22.0682 15.25C22.0682 15.6117 21.9245 15.9585 21.6688 16.2142C21.4131 16.47 21.0662 16.6136 20.7045 16.6136H16.6136V20.7045Z" fill="#7A1500"/>
</svg>
